<?xml version="1.0" standalone="no"?>
<!DOCTYPE svg PUBLIC "-//W3C//DTD SVG 20010904//EN"
 "http://www.w3.org/TR/2001/REC-SVG-20010904/DTD/svg10.dtd">
<svg version="1.0" xmlns="http://www.w3.org/2000/svg"
 width="1009.000000pt" height="1009.000000pt" viewBox="0 0 1009.000000 1009.000000"
 preserveAspectRatio="xMidYMid meet">
<metadata>
Created by potrace 1.14, written by Peter Selinger 2001-2017
</metadata>
<g transform="translate(0.000000,1009.000000) scale(0.100000,-0.100000)"
fill="#000000" stroke="none">
<path d="M4719 9766 c-2 -2 -55 -7 -117 -11 -63 -4 -124 -8 -135 -10 -12 -2
-49 -6 -82 -10 -58 -5 -87 -9 -150 -20 -16 -3 -46 -8 -65 -10 -19 -3 -46 -8
-60 -11 -23 -5 -38 -8 -95 -18 -11 -2 -62 -14 -113 -26 -51 -12 -99 -23 -105
-24 -7 -2 -19 -5 -27 -9 -8 -3 -44 -13 -80 -22 -79 -20 -247 -73 -275 -86 -12
-6 -27 -11 -35 -13 -48 -8 -425 -169 -555 -237 -200 -104 -453 -254 -475 -279
-3 -3 -23 -17 -45 -30 -22 -13 -44 -28 -50 -32 -5 -5 -62 -48 -126 -96 -107
-80 -148 -113 -264 -212 -110 -94 -288 -271 -400 -395 -38 -43 -76 -84 -83
-91 -6 -7 -12 -17 -12 -23 0 -6 -4 -11 -9 -11 -5 0 -28 -26 -52 -57 -24 -32
-51 -65 -59 -73 -8 -8 -26 -31 -40 -50 -206 -291 -333 -490 -361 -562 -6 -16
-16 -28 -22 -28 -6 0 -7 -3 -4 -7 4 -3 3 -11 -2 -17 -15 -19 -146 -287 -176
-361 -16 -38 -32 -74 -37 -79 -4 -6 -8 -16 -8 -23 0 -7 -11 -36 -23 -65 -23
-50 -103 -288 -117 -343 -1 -5 -7 -21 -12 -35 -11 -29 -83 -319 -92 -370 -3
-19 -9 -46 -12 -60 -3 -14 -7 -38 -9 -54 -2 -15 -7 -35 -9 -45 -3 -9 -8 -43
-12 -76 -3 -33 -8 -62 -9 -65 -2 -3 -6 -39 -10 -80 -4 -41 -9 -84 -11 -95 -25
-132 -25 -799 0 -955 3 -14 7 -47 10 -75 4 -27 8 -63 11 -80 2 -16 6 -46 9
-65 10 -76 28 -177 37 -220 6 -25 13 -56 15 -70 11 -58 67 -273 100 -380 51
-166 138 -402 157 -428 5 -6 7 -12 3 -12 -4 0 1 -15 11 -33 9 -17 18 -34 18
-37 11 -41 195 -403 252 -492 12 -21 23 -42 23 -48 0 -5 3 -10 8 -10 4 0 16
-17 27 -37 27 -51 190 -293 204 -303 4 -3 17 -21 29 -40 11 -19 31 -46 44 -60
13 -14 39 -46 58 -71 103 -134 314 -360 465 -498 122 -111 149 -135 200 -175
28 -22 57 -47 66 -55 8 -9 32 -27 52 -41 20 -14 37 -28 37 -32 0 -5 4 -8 10
-8 5 0 36 -20 67 -44 73 -54 272 -187 276 -184 1 2 9 -3 17 -10 50 -44 357
-208 535 -286 61 -27 133 -59 160 -71 54 -24 475 -165 565 -189 57 -15 214
-51 263 -61 15 -3 38 -7 52 -10 52 -10 82 -15 149 -25 38 -6 78 -12 90 -15 12
-2 48 -7 81 -11 33 -3 74 -8 90 -10 246 -26 709 -26 960 1 88 9 163 18 180 21
11 3 36 7 55 9 50 8 91 14 120 20 14 3 37 7 53 10 29 6 159 33 192 41 11 3 29
7 40 9 11 3 29 7 40 9 64 15 398 118 440 136 11 5 49 20 85 34 36 14 79 30 95
37 17 7 32 13 35 14 81 27 471 221 516 256 6 5 14 6 17 2 4 -3 7 -2 7 4 0 5
11 15 23 20 13 6 57 33 98 59 41 26 76 46 78 45 2 -2 7 1 10 6 9 13 103 78
124 86 9 3 17 11 17 17 0 6 5 8 10 5 6 -3 13 1 16 9 3 9 10 16 15 16 19 0 340
259 406 327 17 18 34 33 37 33 13 0 291 288 373 387 21 25 48 57 61 72 12 14
42 51 65 81 23 30 48 61 55 69 8 8 25 30 38 50 13 20 34 50 46 67 53 74 128
186 128 191 0 4 10 20 23 37 13 17 34 51 48 76 13 25 26 47 29 50 3 3 11 16
18 29 8 13 23 40 34 60 68 120 250 505 262 556 2 6 7 21 13 35 18 44 55 145
57 155 1 6 21 69 44 141 24 71 45 140 47 152 5 23 11 47 21 84 3 13 9 39 14
58 5 19 10 44 13 55 13 52 47 224 52 260 3 23 7 52 10 65 6 33 13 83 21 155 3
33 8 68 10 79 18 98 26 654 11 841 -10 121 -23 240 -32 295 -3 14 -7 45 -11
70 -3 25 -7 52 -10 61 -3 9 -7 32 -9 50 -3 19 -16 86 -30 149 -27 125 -27 124
-45 190 -7 25 -13 50 -14 55 -2 6 -8 30 -15 55 -8 25 -14 50 -15 55 -2 11 -44
141 -53 165 -3 8 -7 20 -8 25 -3 10 -53 142 -76 200 -7 17 -13 32 -14 35 -1 3
-9 22 -18 44 -9 21 -17 40 -17 42 0 12 -181 386 -191 394 -3 3 -23 37 -44 75
-21 39 -49 88 -63 110 -14 22 -31 49 -37 60 -6 11 -37 60 -70 108 -33 49 -64
96 -70 105 -5 10 -12 19 -15 22 -3 3 -23 30 -45 60 -22 30 -44 60 -50 67 -5 6
-21 26 -35 44 -14 18 -33 41 -42 51 -10 10 -18 20 -18 23 0 5 -18 27 -65 80
-123 138 -163 182 -246 264 -142 141 -217 211 -229 211 -5 0 -10 4 -10 8 0 5
-27 30 -61 58 -34 27 -80 66 -103 86 -22 21 -46 38 -51 38 -6 0 -17 9 -25 20
-8 11 -18 20 -23 20 -5 0 -23 11 -41 25 -17 14 -35 29 -41 33 -5 5 -46 32 -90
62 -44 29 -82 56 -85 59 -3 4 -16 12 -30 19 -27 13 -62 34 -70 42 -13 13 -219
130 -229 130 -5 0 -11 3 -13 8 -3 6 -214 115 -228 117 -3 0 -14 6 -25 12 -71
39 -467 193 -535 208 -3 0 -27 8 -55 18 -65 22 -300 83 -387 101 -13 3 -34 7
-48 11 -14 3 -39 7 -57 9 -18 3 -40 7 -50 10 -10 3 -65 12 -123 20 -58 9 -114
18 -125 20 -11 2 -56 7 -100 11 -44 3 -96 9 -115 11 -41 6 -606 14 -611 10z"/>
</g>
</svg>
